# xmcd
#
# Track frame offsets: 
#        150
#        14413
#        29038
#        42750
#        56100
#        70463
#        85500
#        100163
#        114323
#        128418
#        142103
#        156925
#        171363
#        184453
#        199363
#        213188
#        227663
#        240878
#        254700
#        267588
#        280405
#
# Disc length: 3927 seconds
#
# Revision: 3
# Processed by: cddbd v1.5.2PL0 Copyright (c) Steve Scherf et al.
# Submitted via: ExactAudioCopy v1.1
#
DISCID=3b0f5515
DTITLE=Blind Willie McTell - The Definitive Blind Willie McTell (Roots
DTITLE=N' Blues) - Disc 1
DYEAR=1994
DGENRE=Blues
TTITLE0=Atlanta Strut (mono)
TTITLE1=Travelin' Blues (mono)
TTITLE2=Come On Around To My House Mama (mono)
TTITLE3=Kind Mama (mono)
TTITLE4=Talking To Myself (mono)
TTITLE5=Razor Ball (mono)
TTITLE6=Southern Can Is Mine (mono)
TTITLE7=Broke Down Engine Blues (mono)
TTITLE8=Stomp Down Rider (mono)
TTITLE9=Scarey Day Blues (mono)
TTITLE10=Rough Alley Blues (mono)
TTITLE11=Experience Blues (mono)
TTITLE12=Painful Blues (mono)
TTITLE13=Low Rider's Blues (mono)
TTITLE14=Georgia Rag (mono)
TTITLE15=Low Down Blues (mono)
TTITLE16=Warm It Up To Me (mono)
TTITLE17=It's Your Time To Worry (mono)
TTITLE18=It's A Good Little Thing (mono)
TTITLE19=You Was Born To Die (mono)
TTITLE20=Dirty Mistreater (mono)
EXTD=
EXTT0=
EXTT1=
EXTT2=
EXTT3=
EXTT4=
EXTT5=
EXTT6=
EXTT7=
EXTT8=
EXTT9=
EXTT10=
EXTT11=
EXTT12=
EXTT13=
EXTT14=
EXTT15=
EXTT16=
EXTT17=
EXTT18=
EXTT19=
EXTT20=
PLAYORDER=
